<svg width="715" height="486" viewBox="0 0 715 486" fill="none" xmlns="http://www.w3.org/2000/svg">
<g clip-path="url(#clip0)">
<path d="M105.998 344.511C105.411 343.676 104.637 342.973 103.73 342.449C102.823 341.926 101.804 341.596 100.747 341.483C99.6894 341.37 98.6183 341.476 97.6092 341.794C96.6001 342.112 95.6774 342.635 94.9062 343.324L71.9164 332.168L73.3456 344.736L94.958 353.403C96.276 354.544 97.9936 355.191 99.7853 355.222C101.577 355.252 103.318 354.663 104.679 353.567C106.04 352.471 106.926 350.944 107.169 349.275C107.412 347.606 106.995 345.911 105.998 344.511H105.998Z" fill="#A0616A"/>
<path d="M85.5668 349.57C85.1508 349.749 84.6993 349.844 84.2417 349.849C83.784 349.854 83.3305 349.768 82.9105 349.597L61.0735 340.691C53.607 337.647 47.5706 332.157 44.0874 325.242L32.6071 302.46C31.7599 301.437 31.1355 300.266 30.7697 299.016C30.4039 297.766 30.3038 296.46 30.4752 295.173C30.6466 293.887 31.0861 292.644 31.7686 291.517C32.4511 290.39 33.3632 289.401 34.4527 288.606C35.5422 287.81 36.7878 287.225 38.1182 286.883C39.4486 286.54 40.8377 286.448 42.2061 286.61C43.5746 286.773 44.8955 287.188 46.0933 287.831C47.2911 288.474 48.3424 289.333 49.187 290.358L69.3664 325.556L87.9995 338.789C88.5329 339.17 88.929 339.695 89.1345 340.294C89.3399 340.893 89.3447 341.537 89.1482 342.139L87.3194 347.692C87.1229 348.288 86.7381 348.813 86.2162 349.198C86.0161 349.345 85.7982 349.47 85.5668 349.57V349.57Z" fill="#CCCCCC"/>
<path d="M32.1019 275.667C41.9225 275.667 49.8837 268.183 49.8837 258.95C49.8837 249.717 41.9225 242.233 32.1019 242.233C22.2812 242.233 14.32 249.717 14.32 258.95C14.32 268.183 22.2812 275.667 32.1019 275.667Z" fill="#A0616A"/>
<path d="M39.3045 478.252L48.1799 478.251L52.4029 446.065L39.3023 446.065L39.3045 478.252Z" fill="#A0616A"/>
<path d="M65.2983 485.999L37.4026 486L37.4021 475.867L54.5199 475.867C57.3784 475.866 60.1198 476.934 62.1412 478.834C64.1625 480.734 65.2982 483.312 65.2983 485.999L65.2983 485.999Z" fill="#2F2E41"/>
<path d="M10.345 478.252L19.2204 478.251L23.4434 446.065L10.3429 446.065L10.345 478.252Z" fill="#A0616A"/>
<path d="M36.3388 485.999L8.44309 486L8.4426 475.867L25.5604 475.867C28.4189 475.866 31.1604 476.934 33.1817 478.834C35.2031 480.734 36.3387 483.312 36.3388 485.999L36.3388 485.999Z" fill="#2F2E41"/>
<path d="M7.2455 469.038C6.93967 468.71 6.71201 468.324 6.57778 467.907C6.44355 467.489 6.40585 467.049 6.46721 466.616L22.0073 357.042L60.6165 363.207L64.737 360.882L54.0818 464.847C53.9931 465.549 53.6497 466.2 53.1095 466.692C52.5692 467.183 51.8652 467.485 51.1162 467.545L39.4254 468.461C38.9606 468.497 38.4929 468.44 38.0539 468.292C37.6149 468.143 37.2149 467.908 36.8808 467.602C36.5468 467.296 36.2866 466.926 36.1177 466.518C35.9489 466.109 35.8754 465.671 35.9022 465.233L38.9289 415.721C38.9343 415.637 38.9062 415.554 38.8502 415.489C38.7942 415.423 38.7143 415.379 38.6258 415.365C38.5374 415.352 38.4467 415.369 38.3714 415.415C38.296 415.461 38.2414 415.531 38.218 415.612L23.2437 467.818C23.0565 468.468 22.6471 469.042 22.0787 469.451C21.5102 469.861 20.8143 470.083 20.0982 470.084H9.69674C9.2325 470.084 8.77361 469.991 8.35084 469.81C7.92808 469.63 7.55121 469.367 7.2455 469.038V469.038Z" fill="#2F2E41"/>
<path d="M33.984 364.712C33.5409 364.335 32.9712 364.116 32.3739 364.092C31.7766 364.069 31.1895 364.243 30.7144 364.584L22.9954 370.229C22.5753 370.537 22.0813 370.743 21.5566 370.83C21.0319 370.916 20.4926 370.881 19.986 370.726C19.4794 370.571 19.0211 370.301 18.6511 369.941C18.2812 369.58 18.011 369.14 17.8642 368.659C14.0779 356.192 5.4997 324.813 7.61298 302.727C8.81085 290.208 20.3096 280.694 33.2457 281.492C42.0896 282.046 47.9079 286.843 50.5389 295.748C56.9987 317.611 64.0979 357.716 65.4554 365.534C65.5625 366.141 65.4722 366.764 65.1961 367.321C64.9201 367.879 64.4713 368.345 63.9086 368.658C60.2564 370.719 56.0835 371.823 51.8239 371.855C46.6697 371.855 40.4897 370.168 33.984 364.712Z" fill="#CCCCCC"/>
<path d="M36.8966 372.49C36.983 371.492 36.8358 370.489 36.4653 369.551C36.0949 368.613 35.5101 367.763 34.7523 367.06C33.9945 366.358 33.082 365.82 32.0792 365.485C31.0764 365.15 30.0076 365.025 28.9481 365.12L18.1811 343.004L11.0559 353.722L22.3728 373.081C22.6608 374.744 23.5876 376.25 24.9775 377.313C26.3674 378.376 28.1239 378.923 29.9142 378.85C31.7044 378.777 33.404 378.09 34.6909 376.917C35.9778 375.745 36.7626 374.17 36.8966 372.49Z" fill="#A0616A"/>
<path d="M17.4994 364.617C17.0543 364.516 16.6366 364.329 16.2735 364.067C15.9104 363.805 15.6099 363.475 15.3917 363.096L4.05469 343.419C0.177584 336.692 -0.968435 328.87 0.829802 321.408L6.7509 296.821C6.75627 295.525 7.0334 294.242 7.56644 293.046C8.09949 291.85 8.878 290.765 9.85746 289.852C10.8369 288.939 11.9981 288.217 13.2747 287.726C14.5513 287.236 15.9182 286.986 17.2974 286.993C18.6765 286.999 20.0408 287.261 21.3122 287.763C22.5836 288.265 23.7373 288.998 24.7072 289.92C25.6772 290.842 26.4443 291.934 26.9649 293.135C27.4855 294.336 27.7493 295.621 27.7412 296.918L20.5148 336.322L26.4903 357.545C26.6602 358.154 26.6271 358.797 26.3955 359.388C26.1639 359.978 25.745 360.488 25.1954 360.847L20.1109 364.156C19.5654 364.511 18.9179 364.7 18.2548 364.7C18.0003 364.701 17.7468 364.672 17.4994 364.617V364.617Z" fill="#CCCCCC"/>
<path opacity="0.2" d="M26.2988 313.535L19.7829 339.4L29.1948 361.181L22.6789 340.081L26.2988 313.535Z" fill="black"/>
<path d="M21.9547 272.697C20.3729 272.724 18.801 272.457 17.3298 271.91C16.6825 271.676 16.0105 271.483 15.3644 271.248C9.65817 269.176 5.89926 263.462 5.76463 257.712C5.63 251.963 8.79717 246.382 13.5002 242.704C18.2032 239.027 24.2947 237.138 30.3944 236.702C36.9647 236.231 44.3631 237.798 48.0346 242.942C49.0119 244.311 49.6953 245.973 49.1162 247.626C48.9428 248.125 48.633 248.572 48.2179 248.923C46.5783 250.295 44.9437 249.264 43.2722 249.172C40.9748 249.047 38.9114 250.795 38.1698 252.844C37.4281 254.892 37.7546 257.146 38.3534 259.235C38.8096 260.492 39.0972 261.798 39.2095 263.122C39.2578 263.786 39.125 264.45 38.8237 265.052C38.5223 265.654 38.0624 266.174 37.4875 266.562C36.0519 267.378 34.1666 266.906 32.7301 266.091C31.2937 265.277 30.0525 264.144 28.5009 263.545C26.9494 262.946 24.8648 263.079 23.9617 264.408C23.6747 264.891 23.4804 265.419 23.3878 265.965C22.5782 269.433 22.7643 269.229 21.9546 272.697L21.9547 272.697Z" fill="#2F2E41"/>
<path d="M548.3 156.875H108.84C107.166 156.877 105.561 157.502 104.377 158.615C103.194 159.728 102.528 161.237 102.526 162.81V442.774C102.528 444.347 103.194 445.856 104.377 446.969C105.561 448.082 107.166 448.707 108.84 448.709H548.3C549.213 448.709 550.114 448.523 550.943 448.163C551.772 447.803 552.508 447.279 553.1 446.626C553.15 446.575 553.196 446.52 553.237 446.463C553.614 446.03 553.919 445.545 554.142 445.027C554.46 444.313 554.622 443.547 554.62 442.774V268.494H552.817V442.774C552.818 443.602 552.559 444.411 552.072 445.101C551.639 445.709 551.051 446.205 550.363 446.544C549.725 446.854 549.018 447.015 548.3 447.014H108.84C107.644 447.013 106.497 446.566 105.652 445.771C104.806 444.976 104.331 443.898 104.329 442.774V162.81C104.33 161.686 104.806 160.608 105.652 159.813C106.497 159.018 107.644 158.571 108.84 158.57H548.3C549.497 158.57 550.645 159.016 551.492 159.812C552.339 160.607 552.816 161.685 552.817 162.81V200.43H554.62V162.81C554.618 161.236 553.951 159.726 552.766 158.613C551.581 157.5 549.975 156.875 548.3 156.875V156.875Z" fill="#3F3D56"/>
<path d="M553.714 180.666H103.425V182.362H553.714V180.666Z" fill="#3F3D56"/>
<path d="M118.766 174.693C121.756 174.693 124.18 172.414 124.18 169.603C124.18 166.792 121.756 164.513 118.766 164.513C115.775 164.513 113.351 166.792 113.351 169.603C113.351 172.414 115.775 174.693 118.766 174.693Z" fill="#CCCCCC"/>
<path d="M134.332 174.693C137.322 174.693 139.746 172.414 139.746 169.603C139.746 166.792 137.322 164.513 134.332 164.513C131.341 164.513 128.917 166.792 128.917 169.603C128.917 172.414 131.341 174.693 134.332 174.693Z" fill="#CCCCCC"/>
<path d="M149.898 174.693C152.888 174.693 155.312 172.414 155.312 169.603C155.312 166.792 152.888 164.513 149.898 164.513C146.908 164.513 144.483 166.792 144.483 169.603C144.483 172.414 146.908 174.693 149.898 174.693Z" fill="#CCCCCC"/>
<path d="M258.649 414.394C256.785 414.386 254.953 413.941 253.318 413.099C251.683 412.257 250.297 411.046 249.286 409.574C248.275 408.102 247.671 406.416 247.527 404.669C247.384 402.922 247.706 401.169 248.465 399.568L261.363 372.513C251.205 364.065 243.075 353.681 237.515 342.052C231.955 330.422 229.092 317.813 229.116 305.063C229.116 255.25 272.223 214.723 325.209 214.723C378.195 214.723 421.301 255.25 421.301 305.063C421.301 354.876 378.195 395.403 325.209 395.403C315.94 395.395 306.721 394.118 297.843 391.614L264.924 412.566C263.074 413.752 260.888 414.389 258.649 414.394V414.394ZM325.209 227.329C308.06 227.32 291.334 232.326 277.347 241.654C263.361 250.982 252.808 264.17 247.151 279.389C241.493 294.609 241.013 311.105 245.775 326.593C250.537 342.081 260.306 355.792 273.729 365.826L277.792 368.873L263.914 397.986L295.763 377.716L298.907 378.709C310.268 382.297 322.322 383.52 334.236 382.292C346.149 381.065 357.636 377.417 367.9 371.601C378.164 365.785 386.961 357.941 393.68 348.611C400.399 339.281 404.88 328.689 406.812 317.57C408.744 306.45 408.081 295.068 404.869 284.214C401.657 273.359 395.972 263.29 388.21 254.706C380.447 246.122 370.792 239.227 359.914 234.5C349.035 229.773 337.193 227.326 325.209 227.329Z" fill="#3F3D56"/>
<path d="M325.209 313.467C332.614 313.467 338.617 307.823 338.617 300.861C338.617 293.9 332.614 288.256 325.209 288.256C317.804 288.256 311.8 293.9 311.8 300.861C311.8 307.823 317.804 313.467 325.209 313.467Z" fill="#3F3D56"/>
<path d="M287.219 313.467C294.624 313.467 300.627 307.823 300.627 300.861C300.627 293.9 294.624 288.256 287.219 288.256C279.813 288.256 273.81 293.9 273.81 300.861C273.81 307.823 279.813 313.467 287.219 313.467Z" fill="#3F3D56"/>
<path d="M363.199 313.467C370.604 313.467 376.607 307.823 376.607 300.861C376.607 293.9 370.604 288.256 363.199 288.256C355.794 288.256 349.791 293.9 349.791 300.861C349.791 307.823 355.794 313.467 363.199 313.467Z" fill="#3F3D56"/>
<path d="M662.384 250.969H534.962C533.426 250.969 531.953 250.395 530.867 249.374C529.781 248.353 529.171 246.968 529.171 245.524C529.171 244.08 529.781 242.695 530.867 241.674C531.953 240.652 533.426 240.079 534.962 240.079H662.384C663.92 240.079 665.393 240.652 666.48 241.674C667.566 242.695 668.176 244.08 668.176 245.524C668.176 246.968 667.566 248.353 666.48 249.374C665.393 250.395 663.92 250.969 662.384 250.969Z" fill="#CCCCCC"/>
<path d="M579.126 227.827H534.962C533.426 227.827 531.953 227.253 530.867 226.232C529.781 225.211 529.171 223.826 529.171 222.382C529.171 220.938 529.781 219.553 530.867 218.532C531.953 217.51 533.426 216.937 534.962 216.937H579.126C580.662 216.937 582.135 217.51 583.221 218.532C584.307 219.553 584.918 220.938 584.918 222.382C584.918 223.826 584.307 225.211 583.221 226.232C582.135 227.253 580.662 227.827 579.126 227.827Z" fill="#CCCCCC"/>
<path d="M477.249 257.604C490.844 257.604 501.864 247.243 501.864 234.462C501.864 221.681 490.844 211.32 477.249 211.32C463.654 211.32 452.633 221.681 452.633 234.462C452.633 247.243 463.654 257.604 477.249 257.604Z" fill="#06A77D"/>
<path d="M675.156 199.068H445.653C442.39 199.073 439.262 200.293 436.955 202.462C434.648 204.631 433.35 207.572 433.345 210.639V258.285C433.35 261.352 434.648 264.293 436.955 266.462C439.262 268.631 442.39 269.851 445.653 269.856H675.156C678.419 269.851 681.547 268.631 683.854 266.462C686.161 264.293 687.46 261.352 687.464 258.285V210.639C687.46 207.572 686.161 204.631 683.854 202.462C681.547 200.293 678.419 199.073 675.156 199.068V199.068ZM686.016 258.285C686.013 260.991 684.868 263.586 682.832 265.5C680.796 267.414 678.036 268.491 675.156 268.494H445.653C442.774 268.491 440.013 267.414 437.978 265.5C435.942 263.586 434.796 260.991 434.793 258.285V210.639C434.796 207.933 435.942 205.338 437.978 203.424C440.013 201.51 442.774 200.433 445.653 200.43H675.156C678.036 200.433 680.796 201.51 682.832 203.424C684.868 205.338 686.013 207.933 686.016 210.639V258.285Z" fill="#3F3D56"/>
<path d="M686.016 218.127C695.213 218.127 702.668 211.118 702.668 202.472C702.668 193.826 695.213 186.817 686.016 186.817C676.82 186.817 669.365 193.826 669.365 202.472C669.365 211.118 676.82 218.127 686.016 218.127Z" fill="#06A77D"/>
<path d="M685.504 211.276C685.437 211.213 685.384 211.138 685.347 211.055C685.311 210.973 685.292 210.884 685.292 210.795V193.468C685.292 193.288 685.369 193.115 685.504 192.987C685.64 192.859 685.824 192.788 686.016 192.788C686.208 192.788 686.392 192.859 686.528 192.987C686.664 193.115 686.74 193.288 686.74 193.468V210.795C686.74 210.929 686.698 211.061 686.618 211.173C686.539 211.285 686.426 211.372 686.293 211.423C686.161 211.475 686.015 211.488 685.875 211.462C685.735 211.436 685.606 211.371 685.504 211.276V211.276Z" fill="white"/>
<path d="M676.29 202.613C676.188 202.517 676.119 202.396 676.092 202.264C676.064 202.132 676.078 201.995 676.133 201.871C676.188 201.747 676.28 201.64 676.399 201.566C676.518 201.491 676.658 201.451 676.802 201.451H695.231C695.423 201.451 695.607 201.523 695.743 201.65C695.879 201.778 695.955 201.951 695.955 202.131C695.955 202.312 695.879 202.485 695.743 202.613C695.607 202.74 695.423 202.812 695.231 202.812H676.802C676.706 202.812 676.612 202.795 676.524 202.76C676.437 202.726 676.357 202.676 676.29 202.613V202.613Z" fill="white"/>
<path d="M705.95 410.549H671.192C671.192 411.489 635.369 412.251 635.369 412.251C634.807 412.649 634.294 413.106 633.841 413.612C632.481 415.138 631.737 417.067 631.741 419.058V420.419C631.742 422.675 632.696 424.839 634.393 426.434C636.09 428.029 638.391 428.926 640.791 428.927H705.95C708.35 428.925 710.65 428.028 712.347 426.433C714.044 424.838 714.998 422.675 715 420.419V419.058C714.997 416.802 714.042 414.64 712.346 413.045C710.649 411.45 708.349 410.553 705.95 410.549Z" fill="#3F3D56"/>
<path d="M678.435 428.589H669.023V485.763H678.435V428.589Z" fill="#3F3D56"/>
<path d="M705.223 485.452C705.223 486.408 690.96 485.822 673.367 485.822C655.774 485.822 641.512 486.408 641.512 485.452C641.512 484.496 655.774 476.915 673.367 476.915C690.96 476.915 705.223 484.496 705.223 485.452Z" fill="#3F3D56"/>
<path d="M676.749 333.931C687.944 333.931 697.02 325.398 697.02 314.872C697.02 304.347 687.944 295.814 676.749 295.814C665.553 295.814 656.477 304.347 656.477 314.872C656.477 325.398 665.553 333.931 676.749 333.931Z" fill="#2F2E41"/>
<path d="M626.301 477.932L617.425 477.932L613.202 445.745L626.303 445.746L626.301 477.932Z" fill="#FFB8B8"/>
<path d="M611.085 475.548H628.203V485.68H600.307C600.307 482.993 601.443 480.416 603.464 478.515C605.485 476.615 608.227 475.548 611.085 475.548V475.548Z" fill="#2F2E41"/>
<path d="M612.446 473.275L603.977 470.776L610.198 438.878L622.697 442.565L612.446 473.275Z" fill="#FFB8B8"/>
<path d="M598.687 466.717L615.02 471.536L611.793 481.203L585.177 473.351C586.033 470.787 587.937 468.647 590.471 467.403C593.004 466.159 595.96 465.912 598.687 466.717V466.717Z" fill="#2F2E41"/>
<path d="M682.179 404.97C681.974 403.348 681.606 401.748 681.079 400.192L679.421 398.232L675.106 393.14L674.918 393.147C674.599 393.161 673.274 393.229 671.225 393.379H671.203C669.936 393.474 668.387 393.596 666.628 393.753C666.164 393.801 665.679 393.842 665.18 393.889V400.995H674.23C674.669 400.996 675.094 401.146 675.424 401.419C675.755 401.692 675.968 402.069 676.025 402.479C676.032 402.554 676.04 402.622 676.04 402.697C676.039 403.148 675.849 403.581 675.509 403.9C675.17 404.219 674.71 404.398 674.23 404.398H621.668C620.998 404.816 620.355 405.271 619.742 405.76C617.89 407.107 616.556 408.985 615.941 411.109C612.872 423.797 607.275 447.456 605.624 454.405C605.505 454.929 605.532 455.473 605.703 455.984C605.875 456.494 606.184 456.954 606.602 457.319C606.91 457.589 607.272 457.799 607.666 457.938L614.197 460.238C614.465 460.332 614.745 460.394 615.029 460.422C615.065 460.422 615.094 460.429 615.131 460.429C615.198 460.435 615.266 460.437 615.333 460.436C615.994 460.433 616.638 460.244 617.182 459.892C617.725 459.539 618.143 459.041 618.381 458.462L623.536 445.748L631.478 426.145L634.62 418.392C638.262 419.196 668.814 425.553 679.044 415.309C680.053 414.3 680.849 413.12 681.39 411.831C682.251 409.64 682.522 407.283 682.179 404.97Z" fill="#2F2E41"/>
<path d="M691.04 406.821C690.881 406.216 690.7 405.589 690.49 404.956L684.517 397.905L684.329 397.912C683.953 397.932 682.164 398.021 679.421 398.232C676.308 398.477 671.956 398.871 667.069 399.491C666.925 399.504 666.773 399.525 666.628 399.545C666.15 399.607 665.665 399.668 665.18 399.736V400.995H674.23C674.669 400.996 675.094 401.146 675.424 401.419C675.755 401.692 675.968 402.069 676.025 402.479C676.032 402.554 676.04 402.622 676.04 402.697C676.039 403.148 675.849 403.581 675.509 403.9C675.17 404.219 674.71 404.398 674.23 404.398H642.244C640.847 404.827 639.5 405.276 638.211 405.76C631.449 408.278 626.389 411.579 625.353 415.874C625.006 417.317 624.622 418.903 624.217 420.591C622.711 426.866 620.879 434.551 619.221 441.534V441.541C618.881 442.984 618.541 444.386 618.215 445.748C616.832 451.601 615.659 456.563 615.036 459.17C615.022 459.245 615.008 459.313 614.993 459.388V459.401C614.921 459.929 614.99 460.465 615.196 460.96L615.203 460.967V460.974C615.402 461.448 615.726 461.867 616.144 462.192C616.424 462.409 616.739 462.581 617.078 462.702L623.609 465.003C623.972 465.131 624.357 465.198 624.745 465.2C625.289 465.202 625.825 465.073 626.302 464.826C626.986 464.477 627.515 463.91 627.793 463.226L641.853 428.541L644.032 423.157C647.674 423.96 678.226 430.31 688.456 420.073C690.477 418.017 691.63 415.338 691.699 412.539C691.771 410.613 691.549 408.688 691.04 406.821V406.821Z" fill="#2F2E41"/>
<path d="M690.237 346.775C690.121 346.646 689.998 346.516 689.868 346.394C687.94 344.488 685.558 343.038 682.92 342.164C680.281 341.29 677.459 341.016 674.686 341.364C672.267 341.662 669.87 342.106 667.511 342.691C664.464 343.428 661.674 344.898 659.417 346.959C657.659 348.561 656.274 350.49 655.35 352.623C654.427 354.755 653.985 357.045 654.052 359.346C654.081 360.279 654.088 361.232 654.074 362.198C654.074 362.647 654.067 363.104 654.06 363.56H661.198C661.508 363.559 661.816 363.593 662.117 363.662C662.989 363.857 663.764 364.323 664.32 364.983C664.875 365.644 665.178 366.461 665.18 367.303V398.967C665.665 399.096 666.15 399.225 666.628 399.362C666.78 399.409 666.925 399.45 667.069 399.491C667.236 399.538 667.402 399.586 667.562 399.634C669.031 400.063 670.467 400.516 671.869 400.995H674.23C674.67 400.996 675.094 401.146 675.424 401.419C675.755 401.692 675.968 402.069 676.025 402.479C676.518 402.663 676.995 402.846 677.466 403.03C679.138 403.684 680.724 404.337 682.179 404.97C684.141 405.814 685.886 406.617 687.348 407.318C687.808 407.539 688.316 407.655 688.833 407.659C689.51 407.656 690.17 407.451 690.715 407.073C690.828 406.995 690.937 406.911 691.041 406.821C691.428 406.48 691.721 406.055 691.894 405.582C692.067 405.11 692.114 404.606 692.032 404.112C691.285 398.766 691.067 393.366 691.381 387.981C691.584 383.455 692.018 378.813 692.583 374.327C692.887 371.897 693.227 369.515 693.582 367.221C693.922 365.03 694.284 362.926 694.639 360.939C695.104 358.419 694.95 355.832 694.187 353.377C693.424 350.921 692.072 348.663 690.237 346.775V346.775Z" fill="#06A77D"/>
<path d="M660.561 347.333C660.189 347.183 659.807 347.058 659.417 346.959C657.488 346.47 655.436 346.65 653.636 347.466C651.836 348.282 650.409 349.68 649.614 351.403L644.64 362.198L644.018 363.56H661.198C661.508 363.559 661.816 363.593 662.117 363.662L662.697 362.403L664.897 357.624C665.772 355.719 665.806 353.565 664.993 351.636C664.18 349.706 662.586 348.159 660.561 347.333V347.333Z" fill="#06A77D"/>
<path d="M676.008 336.049C685.828 336.049 693.789 328.564 693.789 319.332C693.789 310.099 685.828 302.614 676.008 302.614C666.187 302.614 658.226 310.099 658.226 319.332C658.226 328.564 666.187 336.049 676.008 336.049Z" fill="#FFB8B8"/>
<path d="M657.906 311.118C666.328 315.952 675.824 318.893 685.653 319.714L682.729 316.419C684.858 317.159 687.099 317.577 689.368 317.658C691.634 317.625 694.009 316.805 695.295 315.05C695.869 314.178 696.209 313.188 696.288 312.166C696.367 311.143 696.182 310.117 695.748 309.177C694.856 307.3 693.469 305.669 691.718 304.439C688.613 302.131 684.95 300.58 681.054 299.925C677.157 299.271 673.149 299.532 669.387 300.687C666.806 301.412 664.494 302.806 662.717 304.709C661.031 306.664 657.786 308.406 658.649 310.789L657.906 311.118Z" fill="#2F2E41"/>
<path d="M678.998 297.627C673.389 292.28 666.602 288.154 659.115 285.539C654.308 283.865 649.077 282.831 644.052 283.782C639.027 284.732 634.275 288.001 632.874 292.636C631.727 296.426 632.911 300.506 634.69 304.074C636.469 307.642 638.844 310.95 640.282 314.651C641.75 318.427 642.192 322.489 641.567 326.466C640.942 330.443 639.27 334.211 636.703 337.427C634.136 340.642 630.756 343.205 626.869 344.881C622.982 346.557 618.711 347.294 614.444 347.024C619.381 347.647 623.932 349.828 628.758 350.989C633.584 352.15 639.279 352.071 642.866 348.821C646.66 345.382 646.736 339.791 646.552 334.839C646.28 327.478 646.007 320.116 645.734 312.755C645.595 309.001 645.476 305.127 646.916 301.623C648.357 298.119 651.779 295.051 655.774 295.083C658.802 295.107 661.483 296.831 663.911 298.532C666.339 300.233 668.91 302.048 671.926 302.301C674.942 302.554 678.386 300.455 678.16 297.616L678.998 297.627Z" fill="#2F2E41"/>
<path d="M693.582 367.221L683.431 367.48L682.693 374.184L682.527 375.736L666.628 382.447L665.18 383.06V394.992L666.628 394.604L671.203 393.379H671.225L691.381 387.981L691.612 387.92C693.241 387.478 694.674 386.553 695.7 385.284C696.725 384.015 697.287 382.469 697.303 380.875L697.354 372.959L697.397 367.126L693.582 367.221Z" fill="#FFB8B8"/>
<path d="M696.883 353.962C696.748 351.89 695.742 349.953 694.088 348.578C692.434 347.202 690.266 346.501 688.061 346.629C685.857 346.756 683.797 347.701 682.334 349.256C680.871 350.812 680.125 352.85 680.261 354.922L681.368 371.911C681.398 372.358 681.532 372.794 681.761 373.187C681.99 373.579 682.308 373.92 682.693 374.184C683.305 374.613 684.06 374.823 684.821 374.777L692.583 374.327L694.936 374.191C695.364 374.171 695.784 374.07 696.17 373.894C696.556 373.717 696.899 373.469 697.18 373.163C697.242 373.099 697.3 373.031 697.354 372.959C697.814 372.38 698.04 371.666 697.991 370.945L696.883 353.962Z" fill="#06A77D"/>
<path d="M667.562 399.634H666.628V399.545C666.15 399.607 665.665 399.668 665.18 399.736V400.995H671.869C670.465 400.519 669.029 400.065 667.562 399.634ZM667.562 399.634H666.628V399.545C666.15 399.607 665.665 399.668 665.18 399.736V400.995H671.869C670.465 400.519 669.029 400.065 667.562 399.634ZM674.23 399.634H666.628V367.303C666.625 366.196 666.241 365.12 665.532 364.236C664.823 363.353 663.828 362.709 662.696 362.402C662.211 362.265 661.705 362.196 661.198 362.198H596.763C595.324 362.2 593.943 362.738 592.926 363.695C591.908 364.652 591.335 365.95 591.333 367.303V400.655C591.334 402.009 591.906 403.307 592.924 404.264C593.942 405.221 595.323 405.759 596.763 405.76H674.23C675.032 405.758 675.805 405.479 676.402 404.976C676.999 404.472 677.378 403.78 677.466 403.03C677.48 402.92 677.488 402.808 677.488 402.697C677.486 401.885 677.143 401.106 676.532 400.532C675.921 399.958 675.093 399.635 674.23 399.634V399.634ZM676.04 402.697C676.039 403.148 675.849 403.581 675.509 403.9C675.17 404.219 674.71 404.398 674.23 404.398H596.763C595.707 404.398 594.695 404.003 593.948 403.301C593.202 402.599 592.782 401.647 592.781 400.655V367.303C592.782 366.31 593.202 365.359 593.948 364.657C594.695 363.955 595.707 363.56 596.763 363.56H661.198C661.508 363.559 661.816 363.593 662.117 363.662C662.989 363.857 663.764 364.323 664.32 364.984C664.875 365.644 665.178 366.461 665.18 367.303V400.995H674.23C674.669 400.996 675.094 401.146 675.424 401.419C675.755 401.692 675.968 402.069 676.025 402.479C676.032 402.554 676.04 402.622 676.04 402.697V402.697ZM667.562 399.634H666.628V399.545C666.15 399.607 665.665 399.668 665.18 399.736V400.995H671.869C670.465 400.519 669.029 400.065 667.562 399.634Z" fill="#3F3D56"/>
<path d="M628.978 388.064C631.377 388.064 633.322 386.235 633.322 383.98C633.322 381.724 631.377 379.896 628.978 379.896C626.579 379.896 624.634 381.724 624.634 383.98C624.634 386.235 626.579 388.064 628.978 388.064Z" fill="#06A77D"/>
<path d="M240.982 48.5763C240.966 48.8873 240.976 49.199 241.012 49.5085L218.277 67.4462L211.497 65.1384L206.455 74.3024L221.278 80.9356L246.132 54.7146C247.387 54.9286 248.682 54.7784 249.844 54.2839C251.006 53.7894 251.98 52.974 252.637 51.9462C253.294 50.9184 253.603 49.7269 253.522 48.5301C253.441 47.3334 252.975 46.1881 252.185 45.2466C251.395 44.3051 250.319 43.612 249.1 43.2595C247.881 42.9071 246.576 42.9119 245.36 43.2733C244.144 43.6348 243.074 44.3357 242.291 45.283C241.509 46.2303 241.052 47.379 240.982 48.5763L240.982 48.5763Z" fill="#FFB8B8"/>
<path d="M210.491 78.6981L188.537 71.2482C186.521 70.5642 184.877 69.1556 183.966 67.3321C183.056 65.5086 182.953 63.4197 183.68 61.5249C184.408 59.63 185.906 58.0845 187.846 57.2283C189.785 56.372 192.007 56.2753 194.023 56.9592L215.977 64.4091C216.309 64.5219 216.615 64.6953 216.876 64.9192C217.138 65.1431 217.35 65.4133 217.5 65.7142C217.65 66.0152 217.736 66.341 217.752 66.6731C217.769 67.0052 217.715 67.3371 217.595 67.6498L213.938 77.1762C213.695 77.8072 213.195 78.3218 212.549 78.6071C211.903 78.8923 211.163 78.9251 210.491 78.6981V78.6981Z" fill="#CCCCCC"/>
<path d="M194.412 151.275L201.749 151.274L205.239 124.668L194.411 124.668L194.412 151.275Z" fill="#FFB8B8"/>
<path d="M215.899 157.679L192.84 157.68L192.84 149.304L206.99 149.303C209.353 149.303 211.619 150.186 213.29 151.756C214.961 153.327 215.899 155.457 215.899 157.679V157.679L215.899 157.679Z" fill="#2F2E41"/>
<path d="M176.279 142.364L182.281 146.331L201.415 126.454L192.557 120.6L176.279 142.364Z" fill="#FFB8B8"/>
<path d="M189.214 157.861L170.35 145.392L175.475 138.54L187.05 146.192C188.983 147.47 190.297 149.417 190.703 151.605C191.109 153.794 190.573 156.044 189.214 157.861V157.861L189.214 157.861Z" fill="#2F2E41"/>
<path d="M210.467 103.347C210.467 103.347 228.777 101.316 225.49 112.486C222.204 123.656 185.584 133.304 185.584 133.304L210.467 103.347Z" fill="#FFB8B8"/>
<path d="M197.864 46.3497C205.982 46.3497 212.563 40.1627 212.563 32.5306C212.563 24.8985 205.982 18.7115 197.864 18.7115C189.746 18.7115 183.165 24.8985 183.165 32.5306C183.165 40.1627 189.746 46.3497 197.864 46.3497Z" fill="#FFB8B8"/>
<path d="M150.988 131.016C142.624 121.86 139.697 107.808 153.035 96.1203C156.33 93.3047 160.06 90.976 164.098 89.2136L174.848 60.9496C175.965 57.9981 178.012 55.4369 180.717 53.6077C183.422 51.7784 186.656 50.7681 189.987 50.7115C193.222 50.5803 196.421 51.3937 199.144 53.0401C201.867 54.6866 203.981 57.0852 205.196 59.9067C206.509 62.7771 206.659 65.9999 205.618 68.9672C202.418 78.3364 198.215 87.3764 193.075 95.9483L193.631 100.129L220.803 102.399L220.55 102.787C220.418 102.989 207.119 122.038 190.106 134.682C184.289 139.005 178.274 140.797 172.597 140.797C163.988 140.796 156.158 136.676 150.988 131.016Z" fill="#CCCCCC"/>
<path d="M148.423 36.8661C151.024 33.9528 152.139 30.1422 153.037 26.4338C154.456 20.5661 155.555 14.4987 158.709 9.26237C161.863 4.02617 167.66 -0.312565 174.051 0.0176908C180.405 0.346062 185.543 5.15257 188.27 10.6214C188.93 10.3803 189.637 10.2723 190.345 10.3043C191.053 10.3364 191.745 10.5079 192.378 10.8076C194.343 11.8195 195.078 14.6956 193.442 16.1355C195.163 15.3651 197.037 14.944 198.942 14.8993C200.847 14.8547 202.741 15.1875 204.5 15.8763C206.763 16.7818 208.716 18.2564 210.144 20.1379C211.573 22.0195 212.422 24.235 212.597 26.5408C212.666 27.4766 212.529 28.4158 212.196 29.2999C211.862 30.1841 211.34 30.9945 210.66 31.681C207.839 34.4105 203.85 33.469 200.304 32.7736C196.954 32.1169 192.873 31.9396 190.986 34.9404C190.243 36.1907 190.034 37.6608 190.404 39.0506C191.127 42.0461 193.486 44.1327 195.775 46.1296L196.149 46.7834C188.068 48.2649 179.244 43.0765 177.124 35.5973C175.005 28.1181 179.913 19.4898 187.706 16.9948C187.188 17.01 186.674 16.8947 186.219 16.6608C185.763 16.427 185.382 16.083 185.116 15.6645C184.849 15.246 184.706 14.7682 184.701 14.2803C184.697 13.7925 184.831 13.3123 185.09 12.8895C182.932 11.7533 180.491 11.1806 178.019 11.2309C173.993 11.4792 170.509 14.1733 168.414 17.4146C166.319 20.6559 165.371 24.418 164.41 28.1017C163.449 31.7853 162.409 35.5394 160.169 38.6939C158.617 40.8787 156.544 42.6923 154.114 43.99C151.685 45.2877 148.966 46.0336 146.176 46.1682C143.385 46.3028 140.599 45.8223 138.041 44.7651C135.483 43.7079 133.224 42.1032 131.443 40.0791C134.257 41.3623 137.442 41.7429 140.509 41.1626C143.576 40.5823 146.356 39.0731 148.423 36.8661Z" fill="#2F2E41"/>
<path d="M256.384 74.5263C268.185 74.5263 277.751 65.533 277.751 54.4393C277.751 43.3455 268.185 34.3522 256.384 34.3522C244.584 34.3522 235.018 43.3455 235.018 54.4393C235.018 65.533 244.584 74.5263 256.384 74.5263Z" fill="#06A77D"/>
<path d="M255.728 65.7361C255.641 65.6551 255.573 65.5589 255.526 65.4529C255.479 65.3469 255.455 65.2333 255.456 65.1186V42.8866C255.456 42.655 255.553 42.4329 255.728 42.2691C255.902 42.1054 256.138 42.0134 256.384 42.0134C256.631 42.0134 256.867 42.1054 257.041 42.2691C257.215 42.4329 257.313 42.655 257.313 42.8866V65.1186C257.313 65.2913 257.259 65.4601 257.157 65.6037C257.055 65.7473 256.91 65.8592 256.74 65.9253C256.57 65.9914 256.383 66.0088 256.203 65.9751C256.023 65.9414 255.857 65.8582 255.728 65.7361H255.728Z" fill="white"/>
<path d="M243.904 54.6201C243.774 54.498 243.685 54.3424 243.65 54.173C243.614 54.0036 243.632 53.828 243.702 53.6685C243.773 53.5089 243.892 53.3725 244.045 53.2765C244.197 53.1806 244.377 53.1294 244.561 53.1293H268.208C268.455 53.1293 268.691 53.2213 268.865 53.3851C269.039 53.5489 269.137 53.771 269.137 54.0026C269.137 54.2342 269.039 54.4563 268.865 54.6201C268.691 54.7839 268.455 54.8759 268.208 54.8759H244.561C244.439 54.8761 244.318 54.8536 244.205 54.8097C244.092 54.7658 243.99 54.7014 243.904 54.6201Z" fill="white"/>
<path d="M241.718 67.8749C241.563 68.1499 241.431 68.436 241.324 68.7306L212.635 75.8828L207.542 71.0847L198.835 77.3651L209.253 89.2922L243.605 75.4892C244.644 76.1845 245.884 76.5658 247.16 76.5825C248.435 76.5992 249.686 76.2504 250.745 75.5827C251.804 74.9149 252.622 73.9597 253.09 72.8442C253.558 71.7286 253.654 70.5056 253.365 69.3377C253.075 68.1698 252.414 67.1124 251.47 66.3062C250.526 65.5 249.343 64.9831 248.079 64.8243C246.815 64.6655 245.529 64.8723 244.393 65.4172C243.256 65.9621 242.324 66.8194 241.718 67.8748L241.718 67.8749Z" fill="#FFB8B8"/>
<path d="M200.5 82.9564L183.996 67.4403C183.244 66.7354 182.647 65.8979 182.239 64.9759C181.831 64.0538 181.621 63.0652 181.62 62.0667C181.619 61.0681 181.828 60.0792 182.234 59.1564C182.64 58.2337 183.235 57.3953 183.986 56.6892C184.737 55.9831 185.629 55.4232 186.611 55.0415C187.592 54.6597 188.644 54.4637 189.706 54.4645C190.768 54.4654 191.82 54.6631 192.801 55.0464C193.781 55.4298 194.672 55.9911 195.422 56.6984L211.926 72.2145C212.176 72.4496 212.375 72.7287 212.51 73.0358C212.645 73.343 212.715 73.6722 212.715 74.0047C212.715 74.3371 212.645 74.6663 212.51 74.9735C212.375 75.2807 212.176 75.5597 211.926 75.7948L204.309 82.9564C203.803 83.4304 203.119 83.6965 202.405 83.6965C201.691 83.6965 201.006 83.4304 200.5 82.9564V82.9564Z" fill="#CCCCCC"/>
</g>
<defs>
<clipPath id="clip0">
<rect width="715" height="486" fill="white"/>
</clipPath>
</defs>
</svg>
